<svg width="32" height="29" viewBox="0 0 32 29" fill="none" xmlns="http://www.w3.org/2000/svg">
<path d="M16 23.1731C17.9467 23.1731 19.5889 22.4996 20.9267 21.1526C22.2644 19.8055 22.9333 18.1519 22.9333 16.1917C22.9333 14.2136 22.2644 12.5555 20.9267 11.2174C19.5889 9.87925 17.9467 9.2102 16 9.2102C14.0355 9.2102 12.3889 9.87925 11.06 11.2174C9.73112 12.5555 9.06668 14.2136 9.06668 16.1917C9.06668 18.1519 9.73112 19.8055 11.06 21.1526C12.3889 22.4996 14.0355 23.1731 16 23.1731ZM16 20.488C14.7733 20.488 13.7556 20.0762 12.9467 19.2528C12.1378 18.4293 11.7333 17.4089 11.7333 16.1917C11.7333 14.9565 12.1378 13.9316 12.9467 13.1171C13.7556 12.3026 14.7733 11.8954 16 11.8954C17.2089 11.8954 18.2222 12.3026 19.04 13.1171C19.8578 13.9316 20.2667 14.9565 20.2667 16.1917C20.2667 17.4089 19.8578 18.4293 19.04 19.2528C18.2222 20.0762 17.2089 20.488 16 20.488ZM2.66664 29C1.94664 29 1.3222 28.7337 0.79332 28.2012C0.26444 27.6686 0 27.0398 0 26.3148V6.09536C0 5.38827 0.26444 4.76396 0.79332 4.22244C1.3222 3.68095 1.94664 3.4102 2.66664 3.4102H8.26668L11.2 0H20.8L23.7333 3.4102H29.3334C30.0356 3.4102 30.6556 3.68095 31.1933 4.22244C31.7311 4.76396 32 5.38827 32 6.09536V26.3148C32 27.0398 31.7311 27.6686 31.1933 28.2012C30.6556 28.7337 30.0356 29 29.3334 29H2.66664Z" fill="currentColor"/>
</svg>
