<svg width="20" height="20" viewBox="0 0 20 20" fill="none" xmlns="http://www.w3.org/2000/svg">
<g clip-path="url(#clip0_126_3)">
<path d="M10 0.5C8.12108 0.5 6.28435 1.05717 4.72209 2.10104C3.15982 3.14491 1.94218 4.62861 1.22315 6.36451C0.504116 8.10041 0.315985 10.0105 0.682544 11.8534C1.0491 13.6962 1.95389 15.3889 3.28249 16.7175C4.61109 18.0461 6.30383 18.9509 8.14665 19.3175C9.98947 19.684 11.8996 19.4959 13.6355 18.7769C15.3714 18.0578 16.8551 16.8402 17.899 15.2779C18.9428 13.7156 19.5 11.8789 19.5 10C19.4974 7.48126 18.4956 5.06643 16.7146 3.28541C14.9336 1.50439 12.5187 0.502647 10 0.5ZM13.707 8.707L9.707 12.707C9.51948 12.8945 9.26517 12.9998 9 12.9998C8.73484 12.9998 8.48053 12.8945 8.293 12.707L6.293 10.707C6.11085 10.5184 6.01005 10.2658 6.01233 10.0036C6.01461 9.7414 6.11978 9.49059 6.30519 9.30518C6.49059 9.11977 6.74141 9.0146 7.0036 9.01233C7.2658 9.01005 7.5184 9.11084 7.707 9.293L9 10.586L12.293 7.293C12.4816 7.11084 12.7342 7.01005 12.9964 7.01233C13.2586 7.0146 13.5094 7.11977 13.6948 7.30518C13.8802 7.49059 13.9854 7.7414 13.9877 8.0036C13.99 8.2658 13.8892 8.5184 13.707 8.707Z" fill="currentColor"/>
</g>
<defs>
<clipPath id="clip0_126_3">
<rect width="20" height="20" fill="white"/>
</clipPath>
</defs>
</svg>
