<svg width="14" height="9" viewBox="0 0 14 9" fill="none" xmlns="http://www.w3.org/2000/svg">
<path d="M7 9C6.84677 9.00017 6.69502 8.96698 6.55347 8.90233C6.41191 8.83768 6.28334 8.74285 6.17515 8.62328L0.341666 2.19457C0.233344 2.07519 0.147419 1.93348 0.088796 1.77751C0.0301729 1.62154 1.14135e-09 1.45437 0 1.28555C-1.14135e-09 1.11673 0.0301729 0.94956 0.088796 0.79359C0.147419 0.63762 0.233344 0.495902 0.341666 0.376528C0.449987 0.257154 0.578583 0.162461 0.720112 0.0978564C0.861641 0.0332516 1.01333 -1.25781e-09 1.16652 0C1.31971 1.25781e-09 1.4714 0.0332516 1.61293 0.0978564C1.75446 0.162461 1.88305 0.257154 1.99137 0.376528L7 5.89622L12.0086 0.376528C12.1169 0.257154 12.2455 0.162461 12.3871 0.0978564C12.5286 0.0332516 12.6803 2.51562e-09 12.8335 0C12.9867 -2.51562e-09 13.1384 0.0332516 13.2799 0.0978564C13.4214 0.162461 13.55 0.257154 13.6583 0.376528C13.7667 0.495902 13.8526 0.63762 13.9112 0.79359C13.9698 0.94956 14 1.11673 14 1.28555C14 1.45437 13.9698 1.62154 13.9112 1.77751C13.8526 1.93348 13.7667 2.07519 13.6583 2.19457L7.82485 8.62328C7.71666 8.74285 7.58809 8.83768 7.44653 8.90233C7.30498 8.96698 7.15323 9.00017 7 9Z" fill="currentColor"/>
</svg>
