<svg width="20" height="16" viewBox="0 0 20 16" fill="none" xmlns="http://www.w3.org/2000/svg">
<g clip-path="url(#clip0_38_6)">
<path fill-rule="evenodd" clip-rule="evenodd" d="M8.33333 6C7.87309 6 7.5 6.29847 7.5 6.66667V14C7.5 14.3682 7.87309 14.6667 8.33333 14.6667H17.5C17.9602 14.6667 18.3333 14.3682 18.3333 14V6.66667C18.3333 6.29847 17.9602 6 17.5 6H8.33333ZM12.5 4.66667V2C12.5 1.63181 12.1269 1.33333 11.6667 1.33333H2.5C2.03977 1.33333 1.66667 1.63181 1.66667 2V9.33333C1.66667 9.70153 2.03977 10 2.5 10H5.83333V6.66667C5.83333 5.5621 6.95262 4.66667 8.33333 4.66667H12.5ZM14.1667 4.66667H17.5C18.8807 4.66667 20 5.5621 20 6.66667V14C20 15.1046 18.8807 16 17.5 16H8.33333C6.95262 16 5.83333 15.1046 5.83333 14V11.3333H2.5C1.11929 11.3333 0 10.4379 0 9.33333V2C0 0.895433 1.11929 0 2.5 0H11.6667C13.0474 0 14.1667 0.895433 14.1667 2V4.66667Z" fill="currentColor"/>
</g>
<defs>
<clipPath id="clip0_38_6">
<rect width="20" height="16" fill="white"/>
</clipPath>
</defs>
</svg>
