<svg width="12" height="14" viewBox="0 0 12 14" fill="none" xmlns="http://www.w3.org/2000/svg">
<path fill-rule="evenodd" clip-rule="evenodd" d="M9.75 4.2C10.1642 4.2 10.5 4.5134 10.5 4.9V11.9C10.5 13.0598 9.49264 14 8.25 14H3.75C2.50736 14 1.5 13.0598 1.5 11.9V4.9C1.5 4.5134 1.83579 4.2 2.25 4.2H9.75ZM9 5.6H3V11.9C3 12.2866 3.33579 12.6 3.75 12.6H8.25C8.66421 12.6 9 12.2866 9 11.9V5.6ZM3.75 0.7C3.75 0.313401 4.08579 0 4.5 0H7.5C7.91421 0 8.25 0.313401 8.25 0.7V1.4H11.25C11.6642 1.4 12 1.7134 12 2.1C12 2.4866 11.6642 2.8 11.25 2.8H0.75C0.335786 2.8 0 2.4866 0 2.1C0 1.7134 0.335786 1.4 0.75 1.4H3.75V0.7Z" fill="currentColor"/>
</svg>
    