<svg width="21" height="26" viewBox="0 0 21 26" fill="none" xmlns="http://www.w3.org/2000/svg">
<path d="M14.4822 1.46928C12.2953 0.927454 10.0209 0.927454 7.83394 1.4693C6.57082 0.642491 5.60564 0.263073 4.90415 0.103217C4.52277 0.0162965 4.22047 -0.00541941 3.99312 0.00106866C3.87964 0.00429362 3.78572 0.0145218 3.71094 0.0268109C3.67358 0.0329365 3.64111 0.039558 3.61349 0.046008C3.59967 0.0492329 3.58707 0.0524199 3.5757 0.0554921L3.55956 0.0599765L3.5522 0.0621329L3.54866 0.0631824L3.54527 0.0642128C3.54527 0.0641938 3.54525 0.0642128 3.54527 0.0642128C3.54451 0.0645754 3.54827 0.0754144 3.79107 0.980746L3.54527 0.0642128C3.2911 0.141707 3.08211 0.335109 2.97433 0.592495C2.67341 1.31101 2.50908 2.08603 2.49079 2.87271C2.47719 3.45732 2.54446 4.03977 2.68957 4.60143C2.30824 5.094 1.99754 5.64556 1.7686 6.23823C1.46812 7.01615 1.31441 7.84961 1.31626 8.69094C1.3165 11.6536 2.13614 13.6456 3.53293 14.9256C4.51156 15.8224 5.70126 16.2996 6.89251 16.5729C6.69579 17.1556 6.64472 17.7721 6.68454 18.4005V19.5421C5.95562 19.7056 5.45229 19.6539 5.09347 19.5276C4.64257 19.3689 4.29687 19.0497 3.96714 18.5911C3.80013 18.3591 3.64628 18.1043 3.48472 17.8253L3.38216 17.6472C3.25563 17.4268 3.11908 17.1893 2.98127 16.9725C2.63983 16.4354 2.1361 15.7644 1.31979 15.5359L0.454408 15.2935L0 17.1392L0.865386 17.3815C1.00756 17.4215 1.19469 17.5628 1.50024 18.0433C1.61251 18.2198 1.71959 18.4062 1.84189 18.6191C1.88029 18.6859 1.92029 18.7556 1.96232 18.8282C2.13027 19.1181 2.32291 19.4407 2.54736 19.7527C3.0005 20.3827 3.61744 21.0176 4.53266 21.3397C5.16148 21.561 5.87223 21.6141 6.68454 21.481V25.046C6.68454 25.5728 7.08512 26 7.57927 26H14.737C15.2311 26 15.6317 25.5728 15.6317 25.046V18.2476C15.6317 17.6451 15.6071 17.0942 15.448 16.58C16.6333 16.3134 17.8137 15.8357 18.7858 14.9382C20.1821 13.6492 21 11.6393 21 8.65872V8.65564C20.9955 7.16955 20.5065 5.73807 19.6266 4.60146C19.7718 4.03978 19.839 3.45733 19.8255 2.87271C19.8072 2.08603 19.6429 1.31101 19.3418 0.592495C19.2339 0.335033 19.025 0.141612 18.7708 0.0641365L18.5251 0.981552C18.7708 0.0641365 18.7683 0.0633731 18.7674 0.0631061L18.764 0.0620565L18.7564 0.0599191L18.7402 0.0554348C18.7289 0.0523816 18.7163 0.0491949 18.7026 0.04597C18.675 0.0395202 18.6427 0.0329175 18.6052 0.0267919C18.5304 0.0145218 18.4364 0.00429362 18.323 0.00106866C18.0957 -0.00541941 17.7931 0.0162965 17.4117 0.103198C16.71 0.263073 15.745 0.642471 14.4822 1.46928Z" fill="white"/>
</svg>
