<svg width="26" height="26" viewBox="0 0 26 26" fill="none" xmlns="http://www.w3.org/2000/svg">
<path d="M13.2619 0.000876026C16.5561 -0.0373369 19.7382 1.17592 22.1357 3.38272L18.3494 7.09415C16.98 5.81402 15.1527 5.11663 13.2619 5.14529C9.80208 5.14529 6.86365 7.43329 5.81595 10.5142C5.26043 12.1287 5.26043 13.8769 5.81595 15.4914C6.8734 18.5676 9.80695 20.8556 13.2668 20.8556C15.0552 20.8556 16.5902 20.4066 17.7792 19.6137L17.7742 19.6157C19.0797 18.7666 19.9987 17.466 20.3571 15.9837L20.4253 15.6634H13.2619V10.6575H25.771C25.9269 11.5269 26 12.4153 26 13.299C26 17.254 24.5576 20.5976 22.048 22.8618L22.05 22.8579C19.9507 24.7624 17.0995 25.8983 13.7253 25.9935L13.2619 26C8.24759 26 3.66207 23.2296 1.41074 18.8399L1.2164 18.4438C-0.467847 14.8584 -0.403068 10.7078 1.41074 7.1658L1.60371 6.80338C3.91716 2.61954 8.38688 0.000876026 13.2619 0.000876026Z" fill="white"/>
</svg>
