<svg width="24" height="23" viewBox="0 0 24 23" fill="none" xmlns="http://www.w3.org/2000/svg">
<path d="M24 14.1012V23H18.8559V14.697C18.8559 12.6107 18.1115 11.1877 16.2501 11.1877C14.8288 11.1877 13.9823 12.1476 13.6107 13.075C13.4748 13.4066 13.44 13.8685 13.44 14.3328V23H8.2934C8.2934 23 8.36314 8.93855 8.2934 7.48055H13.44V9.68021L13.4063 9.73086H13.44V9.68021C14.123 8.625 15.3435 7.11635 18.0767 7.11635C21.4616 7.11635 24 9.33531 24 14.1012ZM2.91117 0C1.15196 0 0 1.15772 0 2.68084C0 4.1702 1.11829 5.36289 2.84383 5.36289H2.8775C4.67278 5.36289 5.78746 4.1702 5.78746 2.68084C5.7562 1.15772 4.67278 0 2.91117 0ZM0.305426 23H5.44957V7.48055H0.305426V23Z" fill="white"/>
</svg>
