<svg width="12" height="12" viewBox="0 0 12 12" fill="none" xmlns="http://www.w3.org/2000/svg">
<path fill-rule="evenodd" clip-rule="evenodd" d="M0.585786 0.585786C0.960859 0.210714 1.46957 0 2 0H4.66667C5.03486 0 5.33333 0.298477 5.33333 0.666667C5.33333 1.03486 5.03486 1.33333 4.66667 1.33333H2C1.82319 1.33333 1.65362 1.40357 1.5286 1.5286C1.40357 1.65362 1.33333 1.82319 1.33333 2V10C1.33333 10.1768 1.40357 10.3464 1.5286 10.4714C1.65362 10.5964 1.82319 10.6667 2 10.6667H10C10.1768 10.6667 10.3464 10.5964 10.4714 10.4714C10.5964 10.3464 10.6667 10.1768 10.6667 10V7.33333C10.6667 6.96514 10.9651 6.66667 11.3333 6.66667C11.7015 6.66667 12 6.96514 12 7.33333V10C12 10.5304 11.7893 11.0391 11.4142 11.4142C11.0391 11.7893 10.5304 12 10 12H2C1.46957 12 0.960859 11.7893 0.585786 11.4142C0.210714 11.0391 0 10.5304 0 10V2C0 1.46957 0.210714 0.960859 0.585786 0.585786ZM7.33333 0.666667C7.33333 0.298477 7.63181 0 8 0H11.3333C11.7015 0 12 0.298477 12 0.666667V4C12 4.36819 11.7015 4.66667 11.3333 4.66667C10.9651 4.66667 10.6667 4.36819 10.6667 4V2.27614L6.47141 6.47141C6.21106 6.73175 5.78895 6.73175 5.5286 6.47141C5.26825 6.21106 5.26825 5.78895 5.5286 5.5286L9.72386 1.33333H8C7.63181 1.33333 7.33333 1.03486 7.33333 0.666667Z" fill="currentColor"/>
</svg>
