<svg width="12" height="13" viewBox="0 0 12 13" fill="none" xmlns="http://www.w3.org/2000/svg">
<path d="M10.0313 13C9.44792 13 8.96875 12.8021 8.59375 12.4063C8.19792 12.0104 8 11.5312 8 10.9687C8 10.7812 8.01042 10.6667 8.03125 10.625L3.34375 7.96875C2.98959 8.32292 2.55209 8.5 2.03125 8.5C1.46875 8.5 0.989586 8.30208 0.593753 7.90625C0.197919 7.51042 2.69273e-06 7.03125 2.69273e-06 6.46875C2.69273e-06 5.92708 0.197919 5.46875 0.593753 5.09375C0.989586 4.69792 1.46875 4.5 2.03125 4.5C2.55209 4.5 2.98959 4.67708 3.34375 5.03125L8.03125 2.40625C8.01042 2.34375 8 2.19792 8 1.96875C8 1.42708 8.19792 0.96875 8.59375 0.59375C8.96875 0.197917 9.4375 0 10 0C10.5417 0 11.0104 0.197917 11.4063 0.59375C11.7813 0.96875 11.9792 1.42708 12 1.96875C12 2.53125 11.8021 3.01042 11.4063 3.40625C11.0104 3.80208 10.5417 4 10 4C9.52084 4 9.07292 3.82292 8.65625 3.46875L3.96875 6.125C3.98959 6.16667 4 6.28125 4 6.46875C4 6.67708 3.98959 6.8125 3.96875 6.875L8.65625 9.53125C9.07292 9.17708 9.53125 9 10.0313 9C10.6563 9 11.1354 9.19792 11.4688 9.59375C11.8021 9.98958 11.9688 10.4583 11.9688 11C11.9688 11.5417 11.8021 12.0104 11.4688 12.4063C11.1354 12.8021 10.6563 13 10.0313 13Z" fill="currentColor"/>
</svg>
