<svg width="22" height="22" viewBox="0 0 22 22" fill="none" xmlns="http://www.w3.org/2000/svg">
<path d="M11 14.3C11.8752 14.3 12.7146 13.9523 13.3335 13.3335C13.9523 12.7146 14.3 11.8752 14.3 11C14.3 10.1248 13.9523 9.28542 13.3335 8.66655C12.7146 8.04768 11.8752 7.7 11 7.7C10.1248 7.7 9.28542 8.04768 8.66655 8.66655C8.04768 9.28542 7.7 10.1248 7.7 11C7.7 11.8752 8.04768 12.7146 8.66655 13.3335C9.28542 13.9523 10.1248 14.3 11 14.3ZM11 16.5C9.54131 16.5 8.14236 15.9205 7.11091 14.8891C6.07946 13.8576 5.5 12.4587 5.5 11C5.5 9.54131 6.07946 8.14236 7.11091 7.11091C8.14236 6.07946 9.54131 5.5 11 5.5C12.4587 5.5 13.8576 6.07946 14.8891 7.11091C15.9205 8.14236 16.5 9.54131 16.5 11C16.5 12.4587 15.9205 13.8576 14.8891 14.8891C13.8576 15.9205 12.4587 16.5 11 16.5ZM11 0C11.2917 0 11.5715 0.115893 11.7778 0.322183C11.9841 0.528473 12.1 0.808262 12.1 1.1V3.3C12.1 3.59174 11.9841 3.87153 11.7778 4.07782C11.5715 4.28411 11.2917 4.4 11 4.4C10.7083 4.4 10.4285 4.28411 10.2222 4.07782C10.0159 3.87153 9.9 3.59174 9.9 3.3V1.1C9.9 0.808262 10.0159 0.528473 10.2222 0.322183C10.4285 0.115893 10.7083 0 11 0ZM11 17.6C11.2917 17.6 11.5715 17.7159 11.7778 17.9222C11.9841 18.1285 12.1 18.4083 12.1 18.7V20.9C12.1 21.1917 11.9841 21.4715 11.7778 21.6778C11.5715 21.8841 11.2917 22 11 22C10.7083 22 10.4285 21.8841 10.2222 21.6778C10.0159 21.4715 9.9 21.1917 9.9 20.9V18.7C9.9 18.4083 10.0159 18.1285 10.2222 17.9222C10.4285 17.7159 10.7083 17.6 11 17.6ZM1.1 9.9H3.3C3.59174 9.9 3.87153 10.0159 4.07782 10.2222C4.28411 10.4285 4.4 10.7083 4.4 11C4.4 11.2917 4.28411 11.5715 4.07782 11.7778C3.87153 11.9841 3.59174 12.1 3.3 12.1H1.1C0.808262 12.1 0.528473 11.9841 0.322183 11.7778C0.115893 11.5715 0 11.2917 0 11C0 10.7083 0.115893 10.4285 0.322183 10.2222C0.528473 10.0159 0.808262 9.9 1.1 9.9ZM18.7 9.9H20.9C21.1917 9.9 21.4715 10.0159 21.6778 10.2222C21.8841 10.4285 22 10.7083 22 11C22 11.2917 21.8841 11.5715 21.6778 11.7778C21.4715 11.9841 21.1917 12.1 20.9 12.1H18.7C18.4083 12.1 18.1285 11.9841 17.9222 11.7778C17.7159 11.5715 17.6 11.2917 17.6 11C17.6 10.7083 17.7159 10.4285 17.9222 10.2222C18.1285 10.0159 18.4083 9.9 18.7 9.9ZM18.7781 3.2219C18.9843 3.42818 19.1002 3.70792 19.1002 3.9996C19.1002 4.29128 18.9843 4.57102 18.7781 4.7773L17.2227 6.3327C17.1212 6.43776 16.9998 6.52156 16.8656 6.57921C16.7314 6.63686 16.5871 6.66721 16.441 6.66848C16.295 6.66975 16.1501 6.64191 16.015 6.5866C15.8798 6.53129 15.7569 6.44962 15.6537 6.34633C15.5504 6.24305 15.4687 6.12024 15.4134 5.98505C15.3581 5.84986 15.3303 5.70502 15.3315 5.55896C15.3328 5.4129 15.3631 5.26856 15.4208 5.13436C15.4784 5.00015 15.5622 4.87877 15.6673 4.7773L17.2227 3.2219C17.429 3.01568 17.7087 2.89983 18.0004 2.89983C18.2921 2.89983 18.5718 3.01568 18.7781 3.2219ZM6.3327 15.6673C6.53892 15.8736 6.65477 16.1533 6.65477 16.445C6.65477 16.7367 6.53892 17.0164 6.3327 17.2227L4.7773 18.777C4.67583 18.8821 4.55445 18.9659 4.42025 19.0235C4.28604 19.0812 4.1417 19.1115 3.99564 19.1128C3.84958 19.114 3.70474 19.0862 3.56955 19.0309C3.43436 18.9756 3.31155 18.8939 3.20827 18.7906C3.10498 18.6874 3.02331 18.5645 2.968 18.4293C2.91269 18.2942 2.88486 18.1493 2.88612 18.0033C2.88739 17.8572 2.91774 17.7129 2.97539 17.5787C3.03304 17.4445 3.11684 17.3231 3.2219 17.2216L4.7773 15.6662C4.98358 15.46 5.26332 15.3441 5.555 15.3441C5.84668 15.3441 6.12642 15.46 6.3327 15.6662V15.6673ZM4.7773 3.2219L6.3327 4.7773C6.53307 4.98476 6.64395 5.26262 6.64144 5.55104C6.63894 5.83946 6.52325 6.11535 6.3193 6.3193C6.11535 6.52325 5.83946 6.63894 5.55104 6.64144C5.26262 6.64395 4.98476 6.53307 4.7773 6.3327L3.223 4.7773C3.03077 4.56845 2.92672 4.29337 2.9326 4.00958C2.93848 3.72579 3.05384 3.45526 3.25455 3.25455C3.45526 3.05384 3.72579 2.93848 4.00958 2.9326C4.29337 2.92672 4.56845 3.03077 4.7773 3.223V3.2219ZM17.2227 15.6673L18.7781 17.2227C18.9785 17.4302 19.0893 17.708 19.0868 17.9964C19.0843 18.2849 18.9687 18.5608 18.7647 18.7647C18.5608 18.9687 18.2849 19.0843 17.9964 19.0868C17.708 19.0893 17.4302 18.9785 17.2227 18.7781L15.6673 17.2227C15.5622 17.1212 15.4784 16.9998 15.4208 16.8656C15.3631 16.7314 15.3328 16.5871 15.3315 16.441C15.3303 16.295 15.3581 16.1501 15.4134 16.015C15.4687 15.8798 15.5504 15.7569 15.6537 15.6537C15.7569 15.5504 15.8798 15.4687 16.015 15.4134C16.1501 15.3581 16.295 15.3303 16.441 15.3315C16.5871 15.3328 16.7314 15.3631 16.8656 15.4208C16.9998 15.4784 17.1212 15.5622 17.2227 15.6673Z" fill="#FF7F50"/>
</svg>
