<svg width="26" height="20" viewBox="0 0 26 20" fill="none" xmlns="http://www.w3.org/2000/svg">
<path d="M26 2.39613C25.0228 2.79671 23.9895 3.06152 22.932 3.18232C24.0476 2.55254 24.8837 1.56178 25.285 0.393828C24.2366 0.983542 23.089 1.39903 21.892 1.62224C21.0919 0.802362 20.0265 0.25661 18.8628 0.0705742C17.699 -0.115462 16.5029 0.0687402 15.4619 0.594292C14.4209 1.11984 13.594 1.95702 13.1108 2.97451C12.6276 3.99201 12.5155 5.13228 12.792 6.21649C10.6723 6.11517 8.59877 5.59363 6.70625 4.68572C4.81373 3.77781 3.1445 2.50386 1.807 0.946612C1.33788 1.72072 1.09137 2.59738 1.092 3.48942C1.09034 4.31784 1.30548 5.13379 1.71828 5.86463C2.13108 6.59546 2.72872 7.21851 3.458 7.67829C2.61037 7.6565 1.78085 7.44158 1.04 7.0518V7.11322C1.04635 8.27394 1.47679 9.39695 2.25851 10.2923C3.04023 11.1877 4.12523 11.8004 5.33 12.0269C4.86623 12.1602 4.38474 12.2305 3.9 12.2357C3.56446 12.232 3.22975 12.2032 2.899 12.1497C3.24208 13.1482 3.90601 14.0207 4.7984 14.646C5.69078 15.2713 6.76725 15.6182 7.878 15.6384C6.00236 17.033 3.68665 17.7941 1.3 17.8004C0.865456 17.8017 0.431256 17.7771 0 17.7267C2.43676 19.2134 5.27646 20.0026 8.177 19.9992C10.1786 20.0189 12.1643 19.6614 14.018 18.9478C15.8718 18.2342 17.5565 17.1787 18.9738 15.8429C20.391 14.5072 21.5124 12.9179 22.2723 11.1681C23.0323 9.41824 23.4157 7.54283 23.4 5.65142C23.4 5.44259 23.4 5.22147 23.4 5.00036C24.4201 4.28151 25.2999 3.40027 26 2.39613Z" fill="white"/>
</svg>
