<svg width="20" height="20" viewBox="0 0 20 20" fill="none" xmlns="http://www.w3.org/2000/svg">
<g clip-path="url(#clip0_128_8)">
<path d="M10 0.5C8.12107 0.5 6.28435 1.05717 4.72208 2.10104C3.15981 3.14491 1.94217 4.62861 1.22314 6.36451C0.504109 8.10041 0.315977 10.0105 0.682536 11.8534C1.0491 13.6962 1.95388 15.3889 3.28248 16.7175C4.61108 18.0461 6.30382 18.9509 8.14664 19.3175C9.98946 19.684 11.8996 19.4959 13.6355 18.7769C15.3714 18.0578 16.8551 16.8402 17.899 15.2779C18.9428 13.7156 19.5 11.8789 19.5 10C19.4973 7.48126 18.4956 5.06643 16.7146 3.28541C14.9336 1.50439 12.5187 0.502647 10 0.5ZM10 15C9.73478 15 9.48043 14.8946 9.29289 14.7071C9.10535 14.5196 9 14.2652 9 14C9 13.7348 9.10535 13.4804 9.29289 13.2929C9.48043 13.1054 9.73478 13 10 13C10.2652 13 10.5196 13.1054 10.7071 13.2929C10.8946 13.4804 11 13.7348 11 14C11 14.2652 10.8946 14.5196 10.7071 14.7071C10.5196 14.8946 10.2652 15 10 15ZM11 11C11 11.2652 10.8946 11.5196 10.7071 11.7071C10.5196 11.8946 10.2652 12 10 12C9.73478 12 9.48043 11.8946 9.29289 11.7071C9.10535 11.5196 9 11.2652 9 11V6C9 5.73478 9.10535 5.48043 9.29289 5.29289C9.48043 5.10536 9.73478 5 10 5C10.2652 5 10.5196 5.10536 10.7071 5.29289C10.8946 5.48043 11 5.73478 11 6V11Z" fill="currentColor"/>
</g>
<defs>
<clipPath id="clip0_128_8">
<rect width="20" height="20" fill="white"/>
</clipPath>
</defs>
</svg>
