<svg width="28" height="25" viewBox="0 0 28 25" fill="none" xmlns="http://www.w3.org/2000/svg">
<path d="M14 19.9768C15.7033 19.9768 17.1403 19.3962 18.3108 18.235C19.4814 17.0737 20.0667 15.6481 20.0667 13.9583C20.0667 12.2531 19.4814 10.8237 18.3108 9.67014C17.1403 8.5166 15.7033 7.93983 14 7.93983C12.2811 7.93983 10.8403 8.5166 9.6775 9.67014C8.51473 10.8237 7.93334 12.2531 7.93334 13.9583C7.93334 15.6481 8.51473 17.0737 9.6775 18.235C10.8403 19.3962 12.2811 19.9768 14 19.9768ZM14 17.662C12.9267 17.662 12.0361 17.3071 11.3283 16.5972C10.6206 15.8873 10.2667 15.0077 10.2667 13.9583C10.2667 12.8935 10.6206 12.01 11.3283 11.3079C12.0361 10.6057 12.9267 10.2546 14 10.2546C15.0578 10.2546 15.9444 10.6057 16.66 11.3079C17.3756 12.01 17.7333 12.8935 17.7333 13.9583C17.7333 15.0077 17.3756 15.8873 16.66 16.5972C15.9444 17.3071 15.0578 17.662 14 17.662ZM2.33331 25C1.70331 25 1.15693 24.7705 0.694155 24.3114C0.231385 23.8523 0 23.3102 0 22.6852V5.25462C0 4.64506 0.231385 4.10686 0.694155 3.64004C1.15693 3.17323 1.70331 2.93983 2.33331 2.93983H7.23334L9.8 0H18.2L20.7667 2.93983H25.6667C26.2811 2.93983 26.8236 3.17323 27.2942 3.64004C27.7647 4.10686 28 4.64506 28 5.25462V22.6852C28 23.3102 27.7647 23.8523 27.2942 24.3114C26.8236 24.7705 26.2811 25 25.6667 25H2.33331Z" fill="currentColor"/>
</svg>
