<svg width="20" height="20" viewBox="0 0 20 20" fill="none" xmlns="http://www.w3.org/2000/svg">
<g clip-path="url(#clip0_128_6)">
<path d="M10 0.5C8.12107 0.5 6.28435 1.05717 4.72208 2.10104C3.15981 3.14491 1.94217 4.62861 1.22314 6.36451C0.504109 8.10041 0.315977 10.0105 0.682536 11.8534C1.0491 13.6962 1.95388 15.3889 3.28248 16.7175C4.61108 18.0461 6.30382 18.9509 8.14664 19.3175C9.98946 19.684 11.8996 19.4959 13.6355 18.7769C15.3714 18.0578 16.8551 16.8402 17.899 15.2779C18.9428 13.7156 19.5 11.8789 19.5 10C19.4973 7.48126 18.4956 5.06643 16.7146 3.28541C14.9336 1.50439 12.5187 0.502647 10 0.5ZM13.707 12.293C13.8025 12.3852 13.8787 12.4956 13.9311 12.6176C13.9835 12.7396 14.0111 12.8708 14.0122 13.0036C14.0134 13.1364 13.9881 13.2681 13.9378 13.391C13.8875 13.5139 13.8133 13.6255 13.7194 13.7194C13.6255 13.8133 13.5138 13.8875 13.391 13.9378C13.2681 13.9881 13.1364 14.0134 13.0036 14.0123C12.8708 14.0111 12.7396 13.9835 12.6176 13.9311C12.4956 13.8787 12.3852 13.8025 12.293 13.707L10 11.414L7.707 13.707C7.51839 13.8892 7.26579 13.99 7.0036 13.9877C6.7414 13.9854 6.49059 13.8802 6.30518 13.6948C6.11977 13.5094 6.0146 13.2586 6.01232 12.9964C6.01004 12.7342 6.11084 12.4816 6.293 12.293L8.586 10L6.293 7.707C6.11084 7.5184 6.01004 7.2658 6.01232 7.0036C6.0146 6.7414 6.11977 6.49059 6.30518 6.30518C6.49059 6.11977 6.7414 6.0146 7.0036 6.01233C7.26579 6.01005 7.51839 6.11084 7.707 6.293L10 8.586L12.293 6.293C12.4816 6.11084 12.7342 6.01005 12.9964 6.01233C13.2586 6.0146 13.5094 6.11977 13.6948 6.30518C13.8802 6.49059 13.9854 6.7414 13.9877 7.0036C13.9899 7.2658 13.8892 7.5184 13.707 7.707L11.414 10L13.707 12.293Z" fill="currentColor"/>
</g>
<defs>
<clipPath id="clip0_128_6">
<rect width="20" height="20" fill="white"/>
</clipPath>
</defs>
</svg>
