<svg width="20" height="20" viewBox="0 0 20 20" fill="none" xmlns="http://www.w3.org/2000/svg">
<path fill-rule="evenodd" clip-rule="evenodd" d="M14.1667 6.66667C14.6269 6.66667 15 7.03976 15 7.5V15.8333C15 17.214 13.8807 18.3333 12.5 18.3333H7.49999C6.11928 18.3333 4.99999 17.214 4.99999 15.8333V7.5C4.99999 7.03976 5.37309 6.66667 5.83333 6.66667H14.1667ZM13.3333 8.33333H6.66666V15.8333C6.66666 16.2936 7.03976 16.6667 7.49999 16.6667H12.5C12.9602 16.6667 13.3333 16.2936 13.3333 15.8333V8.33333ZM7.49999 2.5C7.49999 2.03976 7.87309 1.66667 8.33333 1.66667H11.6667C12.1269 1.66667 12.5 2.03976 12.5 2.5V3.33333H15.8333C16.2936 3.33333 16.6667 3.70643 16.6667 4.16667C16.6667 4.6269 16.2936 5 15.8333 5H4.16666C3.70642 5 3.33333 4.6269 3.33333 4.16667C3.33333 3.70643 3.70642 3.33333 4.16666 3.33333H7.49999V2.5Z" fill="currentColor"/>
</svg>
