<svg width="12" height="13" viewBox="0 0 12 13" fill="none" xmlns="http://www.w3.org/2000/svg">
<path d="M11.3933 1.48519L10.5843 0.60508C9.8427 -0.201693 8.69664 -0.201693 7.95504 0.60508L6.60672 2.14527L10.045 5.88575L11.4607 4.34556C11.7977 3.97885 12 3.46544 12 2.95205C12 2.43865 11.7304 1.8519 11.3933 1.48519Z" fill="currentColor"/>
<path d="M8.56182 5.81244L5.86518 2.87871L0.539328 8.67276C0.202248 9.03949 0 9.55293 0 10.1396V12.4133C0 12.7067 0.202248 13 0.539328 13H2.69663C3.16854 13 3.64045 12.78 4.04494 12.4133L9.3708 6.61922L8.56182 5.81244Z" fill="currentColor"/>
</svg>
