<svg width="28" height="27" viewBox="0 0 28 27" fill="none" xmlns="http://www.w3.org/2000/svg">
<path fill-rule="evenodd" clip-rule="evenodd" d="M14 1.2759e-06C6.266 1.2759e-06 0 6.19586 0 13.8427C0 19.9594 4.012 25.1457 9.574 26.9767C10.274 27.1034 10.53 26.6758 10.53 26.3096C10.53 25.981 10.518 25.11 10.51 23.954C6.616 24.7913 5.796 22.0992 5.796 22.0992C5.158 20.4998 4.24 20.0742 4.24 20.0742C2.97 19.2151 4.336 19.2329 4.336 19.2329C5.742 19.3319 6.482 20.6581 6.482 20.6581C7.73 22.7762 9.758 22.1626 10.556 21.8102C10.682 20.9155 11.044 20.3058 11.444 19.9594C8.336 19.611 5.068 18.4233 5.068 13.1182C5.068 11.6078 5.614 10.3706 6.508 9.40464C6.364 9.05426 5.884 7.64683 6.648 5.74255C6.648 5.74255 7.82 5.36842 10.496 7.15988C11.6381 6.85191 12.8163 6.69482 14 6.69271C15.19 6.69865 16.388 6.85107 17.506 7.15988C20.178 5.36842 21.352 5.74057 21.352 5.74057C22.116 7.64683 21.636 9.05426 21.492 9.40266C22.388 10.3726 22.932 11.6078 22.932 13.1182C22.932 18.4351 19.656 19.607 16.538 19.9475C17.04 20.3751 17.488 21.2203 17.488 22.5129C17.488 24.3618 17.47 25.8543 17.47 26.3096C17.47 26.6798 17.724 27.1093 18.434 26.9747C21.2188 26.0557 23.6409 24.293 25.3577 21.9363C27.0745 19.5796 27.9988 16.7481 28 13.8427C27.9979 10.1696 26.5218 6.6478 23.8963 4.05185C21.2709 1.4559 17.7111 -0.00157417 14 1.2759e-06Z" fill="#161514"/>
</svg>
