<svg width="28" height="28" viewBox="0 0 28 28" fill="none" xmlns="http://www.w3.org/2000/svg">
<path d="M27.0713 14.0469C27.0713 13.1131 26.9948 12.1754 26.834 11.2573H13.8082V16.5441H21.2666C21.1128 17.3902 20.7888 18.1962 20.3144 18.9134C19.8399 19.6306 19.2249 20.2441 18.5065 20.7167V24.1497H22.9576C25.5706 21.7564 27.0713 18.2253 27.0713 14.0469Z" fill="#4285F4"/>
<path d="M13.8102 27.463C17.5335 27.463 20.6742 26.2467 22.9615 24.1477L18.5124 20.7167C17.2746 21.5543 15.6758 22.029 13.8141 22.029C10.2124 22.029 7.15803 19.6122 6.06143 16.3636H1.47104V19.9006C2.62766 22.1786 4.39317 24.0913 6.57142 25.4263C8.74967 26.7613 11.2554 27.4663 13.8102 27.463Z" fill="#34A853"/>
<path d="M6.05554 16.3636C5.47706 14.6589 5.47706 12.811 6.05554 11.1063V7.56931H1.46906C0.503207 9.48109 0 11.593 0 13.735C0 15.8769 0.503207 17.9888 1.46906 19.9006L6.05554 16.3636Z" fill="#FBBC04"/>
<path d="M13.8102 5.433C15.777 5.40112 17.6782 6.14047 19.1068 7.4928L23.0498 3.57134C20.5439 1.23703 17.2347 -0.0416829 13.8102 0.00103692C11.2547 -0.00220074 8.74835 0.703485 6.56996 2.03961C4.39157 3.37574 2.6265 5.28993 1.47104 7.5693L6.05359 11.1023C7.1443 7.84983 10.2046 5.433 13.8063 5.433H13.8102Z" fill="#EA4335"/>
</svg>
