<svg width="24" height="24" viewBox="0 0 24 24" fill="none" xmlns="http://www.w3.org/2000/svg">
<g clip-path="url(#clip0_24_10)">
<path d="M16 12V11.999C16 9.79 14.209 7.999 12 7.999C9.791 7.999 8 9.79 8 11.999C8 14.208 9.791 15.999 12 15.999C13.104 15.999 14.104 15.551 14.828 14.828C15.551 14.127 16 13.146 16 12.06C16 12.039 16 12.018 15.999 11.997L16 12ZM18.16 12C18.148 15.379 15.406 18.114 12.025 18.114C8.637 18.114 5.89 15.367 5.89 11.979C5.89 8.591 8.637 5.844 12.025 5.844C13.719 5.844 15.253 6.531 16.363 7.641C17.472 8.721 18.161 10.228 18.161 11.897C18.161 11.933 18.161 11.97 18.16 12.006V12.001V12ZM19.847 5.594V5.596C19.847 6.391 19.202 7.036 18.407 7.036C17.612 7.036 16.967 6.391 16.967 5.596C16.967 4.801 17.612 4.156 18.407 4.156C18.805 4.156 19.165 4.317 19.425 4.578C19.681 4.829 19.84 5.179 19.84 5.566V5.595L19.847 5.594ZM12.007 2.154L10.812 2.146C10.088 2.14067 9.53833 2.14067 9.163 2.146C8.78767 2.15133 8.285 2.167 7.655 2.193C7.07 2.213 6.515 2.271 5.972 2.363L6.045 2.353C5.62 2.423 5.243 2.523 4.882 2.656L4.925 2.642C3.881 3.067 3.068 3.879 2.653 4.896L2.643 4.923C2.524 5.241 2.424 5.618 2.359 6.006L2.354 6.043C2.272 6.512 2.214 7.067 2.195 7.632L2.194 7.653C2.168 8.28367 2.15234 8.78633 2.147 9.161C2.14167 9.53567 2.14167 10.0853 2.147 10.81C2.15234 11.5347 2.155 11.933 2.155 12.005C2.155 12.077 2.15234 12.4753 2.147 13.2C2.14167 13.9247 2.14167 14.4743 2.147 14.849C2.15234 15.2237 2.168 15.7263 2.194 16.357C2.214 16.942 2.272 17.497 2.364 18.04L2.354 17.967C2.424 18.392 2.524 18.769 2.657 19.13L2.643 19.087C3.068 20.131 3.88 20.944 4.897 21.359L4.924 21.369C5.242 21.488 5.619 21.588 6.007 21.653L6.044 21.658C6.513 21.74 7.068 21.798 7.632 21.817L7.653 21.818C8.28367 21.844 8.78633 21.8597 9.161 21.865C9.53567 21.8703 10.0853 21.8703 10.81 21.865L11.998 21.841L13.193 21.849C13.917 21.8543 14.4667 21.8543 14.842 21.849C15.2173 21.8437 15.72 21.828 16.35 21.802C16.935 21.782 17.49 21.724 18.033 21.632L17.96 21.642C18.385 21.572 18.762 21.472 19.123 21.339L19.08 21.353C20.124 20.928 20.937 20.116 21.352 19.099L21.362 19.072C21.481 18.754 21.581 18.377 21.646 17.989L21.651 17.952C21.733 17.483 21.791 16.928 21.81 16.364L21.811 16.343C21.837 15.7123 21.8527 15.2097 21.858 14.835C21.8633 14.4603 21.8633 13.9107 21.858 13.186C21.8527 12.4613 21.85 12.063 21.85 11.991C21.85 11.919 21.8527 11.5207 21.858 10.796C21.8633 10.0713 21.8633 9.52167 21.858 9.147C21.8527 8.77233 21.837 8.26967 21.811 7.639C21.791 7.054 21.733 6.499 21.641 5.956L21.651 6.029C21.581 5.604 21.481 5.227 21.348 4.866L21.362 4.909C20.937 3.865 20.125 3.052 19.108 2.637L19.081 2.627C18.763 2.508 18.386 2.408 17.998 2.343L17.961 2.338C17.492 2.256 16.937 2.198 16.373 2.179L16.352 2.178C15.7213 2.152 15.2187 2.13633 14.844 2.131C14.4693 2.12567 13.9197 2.12567 13.195 2.131L12.007 2.154ZM24 12C24 14.3853 23.9733 16.0363 23.92 16.953C23.925 17.054 23.929 17.172 23.929 17.29C23.929 20.957 20.956 23.93 17.289 23.93C17.17 23.93 17.052 23.927 16.935 23.921L16.951 23.922C16.0343 23.9753 14.3833 24.002 11.998 24.002C9.61267 24.002 7.96167 23.9753 7.045 23.922C6.944 23.927 6.826 23.931 6.708 23.931C3.041 23.931 0.0680022 20.958 0.0680022 17.291C0.0680022 17.172 0.0710022 17.054 0.0770022 16.937L0.0760022 16.953C0.0226689 16.0363 -0.0039978 14.3853 -0.0039978 12C-0.0039978 9.61467 0.0226689 7.96367 0.0760022 7.047C0.0710022 6.946 0.0670022 6.828 0.0670022 6.71C0.0670022 3.043 3.04 0.0700011 6.707 0.0700011C6.826 0.0700011 6.944 0.0730011 7.061 0.0790011L7.045 0.0780011C7.96167 0.0246678 9.61267 -0.0019989 11.998 -0.0019989C14.3833 -0.0019989 16.0343 0.0246678 16.951 0.0780011C17.052 0.0730011 17.17 0.0690011 17.288 0.0690011C20.955 0.0690011 23.928 3.042 23.928 6.709C23.928 6.828 23.925 6.946 23.919 7.063L23.92 7.047C23.9733 7.963 24 9.614 24 12Z" fill="currentColor"/>
</g>
<defs>
<clipPath id="clip0_24_10">
<rect width="24" height="24" fill="white"/>
</clipPath>
</defs>
</svg>
