<svg width="40" height="40" viewBox="0 0 40 40" fill="none" xmlns="http://www.w3.org/2000/svg">
<rect width="40" height="40" rx="20" fill="white"/>
<path d="M21.1423 18.8768L21.1316 18.8663L21.12 18.8566L20.9804 18.7404C20.3429 18.1685 19.5102 17.8624 18.6536 17.8851C17.7944 17.9079 16.9769 18.2597 16.37 18.8679L10.8803 24.3643C10.8802 24.3643 10.8802 24.3644 10.8801 24.3644C10.2486 24.9954 9.89371 25.8512 9.89371 26.7437C9.89371 27.6362 10.2486 28.4921 10.8803 29.1232C11.5119 29.7541 12.3685 30.1086 13.2616 30.1086C14.1537 30.1086 15.0095 29.7549 15.6409 29.1251L17.7669 27.0613C17.9284 26.934 18.1315 26.8708 18.3372 26.884C18.5478 26.8975 18.7453 26.9902 18.8901 27.1433C19.0349 27.2964 19.1162 27.4986 19.1178 27.7091C19.1194 27.9164 19.0435 28.1168 18.905 28.2712L16.8252 30.3008C15.8681 31.1773 14.6093 31.6513 13.3109 31.6239C12.0106 31.5964 10.7713 31.0681 9.85182 30.1495C8.93231 29.2309 8.40365 27.993 8.37613 26.6944C8.34867 25.3987 8.82221 24.1423 9.69816 23.1865L15.2544 17.6961L15.2544 17.6961L15.2566 17.6939C16.1543 16.792 17.3617 16.2647 18.6342 16.2187C19.9006 16.173 21.1371 16.6076 22.0957 17.4347C22.1593 17.5025 22.2197 17.5733 22.2766 17.6468L22.2924 17.6673L22.3109 17.6854C22.4691 17.8401 22.5593 18.0512 22.5616 18.2722C22.564 18.4932 22.4783 18.7062 22.3234 18.8643C22.1685 19.0223 21.9571 19.1125 21.7355 19.1148C21.5139 19.1172 21.3006 19.0315 21.1423 18.8768ZM23.0527 9.84519L23.0527 9.8452L23.055 9.84293C24.002 8.90276 25.283 8.375 26.6182 8.375C27.9527 8.375 29.2329 8.90213 30.1797 9.84124C31.1139 10.793 31.6333 12.0752 31.6249 13.408C31.6165 14.7416 31.0802 16.0178 30.1331 16.9578L30.1322 16.9587L24.63 22.4555L24.6298 22.4557C23.7306 23.3553 22.5234 23.8811 21.2515 23.927C19.9796 23.9729 18.7376 23.5355 17.7758 22.703L17.7759 22.7029L17.767 22.6956C17.6805 22.6253 17.5982 22.5502 17.5202 22.4706L17.5203 22.4705L17.5144 22.4648C17.3562 22.31 17.2661 22.0989 17.2638 21.8779C17.2614 21.6569 17.347 21.4439 17.5019 21.2859C17.6568 21.1278 17.8683 21.0376 18.0899 21.0353C18.3115 21.033 18.5248 21.1186 18.683 21.2734L18.6938 21.2839L18.7053 21.2935L18.845 21.4097C19.4825 21.9817 20.3152 22.2878 21.1718 22.2651C22.0309 22.2423 22.8484 21.8905 23.4552 21.2824C23.4552 21.2823 23.4553 21.2823 23.4553 21.2822L28.9451 15.7859C28.9452 15.7858 28.9452 15.7858 28.9453 15.7857C29.5768 15.1547 29.9317 14.2989 29.9317 13.4064C29.9317 12.5139 29.5767 11.658 28.9451 11.027C28.3135 10.396 27.4569 10.0416 26.5638 10.0416C25.671 10.0416 24.8147 10.3958 24.1832 11.0264C24.1829 11.0266 24.1827 11.0268 24.1825 11.027L22.1054 13.0901C21.9441 13.2165 21.7416 13.2793 21.5366 13.2662C21.326 13.2526 21.1284 13.1599 20.9836 13.0068C20.8388 12.8537 20.7575 12.6516 20.7559 12.4411C20.7543 12.2337 20.8303 12.0333 20.9687 11.879L23.0527 9.84519Z" fill="#1C64F2" stroke="#1C64F2" stroke-width="0.75"/>
</svg>
