<svg width="16" height="16" viewBox="0 0 16 16" fill="none" xmlns="http://www.w3.org/2000/svg">
<path fill-rule="evenodd" clip-rule="evenodd" d="M0 0.8C0 0.358172 0.356622 0 0.796537 0H7.96206C8.40198 0 8.7586 0.358172 8.7586 0.8C8.7586 1.24183 8.40198 1.6 7.96206 1.6H1.59307V14.4H7.96537C8.40528 14.4 8.7619 14.7582 8.7619 15.2C8.7619 15.6418 8.40528 16 7.96537 16H0.796537C0.356622 16 0 15.6418 0 15.2V0.8Z" fill="currentColor"/>
<path fill-rule="evenodd" clip-rule="evenodd" d="M10.907 4.04282C11.2274 3.73176 11.7469 3.73176 12.0674 4.04282L15.7597 7.62724C16.0801 7.93831 16.0801 8.44265 15.7597 8.75371L12.0674 12.3381C11.7469 12.6492 11.2274 12.6492 10.907 12.3381C10.5866 12.0271 10.5866 11.5227 10.907 11.2117L14.0191 8.19048L10.907 5.1693C10.5866 4.85823 10.5866 4.35389 10.907 4.04282Z" fill="currentColor"/>
<path fill-rule="evenodd" clip-rule="evenodd" d="M3.80952 8C3.80952 7.57921 4.17338 7.23809 4.62222 7.23809H15.1873C15.6361 7.23809 16 7.57921 16 8C16 8.42078 15.6361 8.7619 15.1873 8.7619H4.62222C4.17338 8.7619 3.80952 8.42078 3.80952 8Z" fill="currentColor"/>
</svg>
