<svg width="17" height="17" viewBox="0 0 17 17" fill="none" xmlns="http://www.w3.org/2000/svg">
<path d="M6.29417 1C3.37417 2.17333 1 4.71917 1 8.05833C1 10.1646 1.83671 12.1846 3.32606 13.6739C4.81541 15.1633 6.83541 16 8.94167 16C12.2808 16 14.8267 13.6258 16 10.7058C5.30833 12.7208 5.28333 5.28333 6.29417 1Z" fill="#1e90ff"/>
<path fill-rule="evenodd" clip-rule="evenodd" d="M6.80426 0.205535C7.04492 0.412496 7.15023 0.736311 7.07732 1.04524C6.57217 3.18578 6.38946 5.89814 7.46303 7.7895C7.97898 8.69848 8.80231 9.45094 10.1184 9.87563C11.4581 10.3079 13.3502 10.4127 15.9926 9.91466C16.2977 9.85716 16.6099 9.97059 16.8069 10.2105C17.0039 10.4505 17.0545 10.7788 16.9387 11.0669C15.6553 14.2607 12.8057 17 8.95049 17C6.57668 17 4.30008 16.057 2.62154 14.3785C0.942996 12.6999 0 10.4233 0 8.04951C0 4.19432 2.7393 1.34467 5.93312 0.0613059C6.22765 -0.057044 6.56359 -0.001425 6.80426 0.205535ZM5.10494 2.38101C3.09503 3.64073 1.7 5.64194 1.7 8.04951C1.7 9.97246 2.46389 11.8166 3.82362 13.1764C5.18335 14.5361 7.02754 15.3 8.95049 15.3C11.3816 15.3 13.3983 13.8776 14.6557 11.836C12.6162 12.0651 10.9481 11.9297 9.59634 11.4935C7.87271 10.9373 6.70932 9.90548 5.9846 8.62869C4.9089 6.73357 4.84202 4.38008 5.10494 2.38101Z" fill="#1e90ff"/>
</svg>

