<svg width="24" height="16" viewBox="0 0 24 16" fill="none" xmlns="http://www.w3.org/2000/svg">
<path fill-rule="evenodd" clip-rule="evenodd" d="M12 12.2353C13.1681 12.2353 14.1177 12.8683 14.1177 13.6471C14.1177 14.4258 13.1681 15.0588 12 15.0588C10.8319 15.0588 9.88235 14.4258 9.88235 13.6471C9.88235 12.8683 10.8319 12.2353 12 12.2353ZM12 6.58823C13.1681 6.58823 14.1177 7.22127 14.1177 8C14.1177 8.77873 13.1681 9.41177 12 9.41177C10.8319 9.41177 9.88235 8.77873 9.88235 8C9.88235 7.22127 10.8319 6.58823 12 6.58823ZM12 0.941175C13.1681 0.941175 14.1177 1.57421 14.1177 2.35294C14.1177 3.13167 13.1681 3.76471 12 3.76471C10.8319 3.76471 9.88235 3.13167 9.88235 2.35294C9.88235 1.57421 10.8319 0.941175 12 0.941175Z" fill="currentColor"/>
</svg>
