<svg width="16" height="16" viewBox="0 0 16 16" fill="none" xmlns="http://www.w3.org/2000/svg">
<path fill-rule="evenodd" clip-rule="evenodd" d="M0.781049 0.781049C1.28115 0.280951 1.95942 0 2.66667 0H6.22222C6.71314 0 7.11111 0.397969 7.11111 0.888889C7.11111 1.37981 6.71314 1.77778 6.22222 1.77778H2.66667C2.43092 1.77778 2.20483 1.87143 2.03813 2.03813C1.87143 2.20483 1.77778 2.43092 1.77778 2.66667V13.3333C1.77778 13.5691 1.87143 13.7952 2.03813 13.9619C2.20483 14.1286 2.43092 14.2222 2.66667 14.2222H13.3333C13.5691 14.2222 13.7952 14.1286 13.9619 13.9619C14.1286 13.7952 14.2222 13.5691 14.2222 13.3333V9.77778C14.2222 9.28686 14.6202 8.88889 15.1111 8.88889C15.602 8.88889 16 9.28686 16 9.77778V13.3333C16 14.0406 15.719 14.7189 15.219 15.219C14.7189 15.719 14.0406 16 13.3333 16H2.66667C1.95942 16 1.28115 15.719 0.781049 15.219C0.280952 14.7189 0 14.0406 0 13.3333V2.66667C0 1.95942 0.280951 1.28115 0.781049 0.781049ZM9.77778 0.888889C9.77778 0.397969 10.1757 0 10.6667 0H15.1111C15.602 0 16 0.397969 16 0.888889V5.33333C16 5.82425 15.602 6.22222 15.1111 6.22222C14.6202 6.22222 14.2222 5.82425 14.2222 5.33333V3.03486L8.62854 8.62854C8.28141 8.97567 7.71859 8.97567 7.37146 8.62854C7.02433 8.28141 7.02433 7.71859 7.37146 7.37146L12.9651 1.77778H10.6667C10.1757 1.77778 9.77778 1.37981 9.77778 0.888889Z" fill="currentColor"/>
</svg>
