<svg width="16" height="16" viewBox="0 0 16 16" fill="none" xmlns="http://www.w3.org/2000/svg">
<g clip-path="url(#clip0_32_4)">
<path d="M9.95555 5.17778C9.95555 5.30626 10.0066 5.42948 10.0974 5.52033C10.1883 5.61118 10.3115 5.66222 10.44 5.66222H15.3022V0.804446C15.3022 0.675374 15.2509 0.551589 15.1597 0.460321C15.0684 0.369053 14.9446 0.31778 14.8156 0.31778C14.6865 0.31778 14.5627 0.369053 14.4714 0.460321C14.3802 0.551589 14.3289 0.675374 14.3289 0.804446V3.97778C13.4175 2.64321 12.0888 1.64913 10.5512 1.15162C9.01362 0.654115 7.35436 0.681369 5.83396 1.2291C4.31356 1.77684 3.01814 2.81402 2.15111 4.1778C1.28409 5.54158 0.894563 7.1547 1.04371 8.76385C1.19286 10.373 1.87222 11.8871 2.97513 13.0682C4.07804 14.2494 5.54203 15.0309 7.1372 15.2898C8.73236 15.5488 10.3684 15.2706 11.7883 14.499C13.2082 13.7274 14.3317 12.506 14.9822 11.0267C15.0304 10.9067 15.03 10.7727 14.9811 10.653C14.9323 10.5334 14.8388 10.4374 14.7204 10.3854C14.602 10.3334 14.4681 10.3296 14.3469 10.3746C14.2257 10.4196 14.1268 10.51 14.0711 10.6267C13.5065 11.9125 12.5287 12.9729 11.2927 13.6396C10.0568 14.3063 8.6336 14.5412 7.249 14.3068C5.86439 14.0725 4.59771 13.3824 3.65 12.3461C2.70228 11.3099 2.12782 9.98672 2.01779 8.58674C1.90777 7.18677 2.26847 5.79014 3.04266 4.61853C3.81685 3.44692 4.96018 2.56744 6.29118 2.11968C7.62218 1.67192 9.06459 1.68153 10.3895 2.14698C11.7144 2.61244 12.8459 3.50707 13.6044 4.68889H10.4444C10.3801 4.6883 10.3162 4.70054 10.2567 4.7249C10.1971 4.74926 10.1429 4.78524 10.0974 4.83076C10.0519 4.87628 10.0159 4.93041 9.99156 4.98999C9.9672 5.04957 9.95496 5.11341 9.95555 5.17778Z" fill="currentColor"/>
</g>
<defs>
<clipPath id="clip0_32_4">
<rect width="16" height="16" fill="white"/>
</clipPath>
</defs>
</svg>
