<svg width="18" height="18" viewBox="0 0 18 18" fill="none" xmlns="http://www.w3.org/2000/svg">
<path d="M9.05625 5.0625C6.8625 5.0625 5.11875 6.80625 5.11875 9C5.11875 11.1937 6.8625 12.9375 9.05625 12.9375C11.25 12.9375 12.9937 11.1937 12.9937 9C12.9937 6.80625 11.25 5.0625 9.05625 5.0625ZM9.05625 11.8125C7.48125 11.8125 6.24375 10.575 6.24375 9C6.24375 7.425 7.48125 6.1875 9.05625 6.1875C10.6312 6.1875 11.8687 7.425 11.8687 9C11.8687 10.575 10.6312 11.8125 9.05625 11.8125Z" fill="currentColor"/>
<path d="M17.325 7.14375L15.75 6.6375L15.4125 5.79375L16.2 4.33125C16.3687 3.99375 16.3125 3.54375 16.0312 3.2625L14.6813 1.9125C14.4 1.63125 13.95 1.575 13.6125 1.74375L12.15 2.53125L11.3063 2.19375L10.8 0.61875C10.6875 0.28125 10.35 0 9.95625 0H8.04375C7.65 0 7.3125 0.28125 7.25625 0.675L6.75 2.25C6.4125 2.30625 6.13125 2.41875 5.85 2.5875L4.3875 1.8C4.05 1.63125 3.6 1.6875 3.31875 1.96875L1.96875 3.31875C1.6875 3.6 1.63125 4.05 1.8 4.3875L2.53125 5.79375C2.41875 6.075 2.30625 6.4125 2.19375 6.69375L0.61875 7.2C0.28125 7.3125 0 7.65 0 8.04375V9.95625C0 10.35 0.28125 10.6875 0.675 10.8L2.25 11.3063L2.5875 12.15L1.8 13.6125C1.63125 13.95 1.6875 14.4 1.96875 14.6813L3.31875 16.0312C3.6 16.3125 4.05 16.3687 4.3875 16.2L5.85 15.4125L6.69375 15.75L7.2 17.3813C7.3125 17.7188 7.65 18 8.04375 18H9.95625C10.35 18 10.6875 17.7188 10.8 17.3813L11.3063 15.75L12.15 15.4125L13.6125 16.2C13.95 16.3687 14.4 16.3125 14.6813 16.0312L16.0312 14.6813C16.3125 14.4 16.3687 13.95 16.2 13.6125L15.4125 12.15L15.75 11.3063L17.3813 10.8C17.7188 10.6875 18 10.35 18 9.95625V8.04375C18 7.65 17.7187 7.25625 17.325 7.14375ZM16.875 9.7875L14.85 10.4062L14.7937 10.6875C14.625 11.0812 14.4562 11.475 14.2875 11.8688L14.1188 12.15L15.1312 14.0062L14.0062 15.1312L12.15 14.1188L11.8688 14.2875C11.475 14.5125 11.0812 14.6812 10.6875 14.7937L10.4062 14.85L9.7875 16.875H8.2125L7.59375 14.85L7.3125 14.7937C6.91875 14.625 6.525 14.4562 6.13125 14.2875L5.85 14.1188L3.99375 15.1312L2.86875 14.0062L3.88125 12.15L3.7125 11.8688C3.4875 11.475 3.31875 11.0812 3.20625 10.6875L3.15 10.4062L1.125 9.7875V8.2125L3.0375 7.65L3.15 7.36875C3.2625 6.91875 3.43125 6.525 3.65625 6.13125L3.825 5.85L2.86875 3.99375L3.99375 2.86875L5.79375 3.88125L6.075 3.7125C6.46875 3.4875 6.8625 3.31875 7.3125 3.20625L7.59375 3.09375L8.2125 1.125H9.7875L10.4062 3.09375L10.6875 3.20625C11.0812 3.31875 11.475 3.4875 11.8688 3.7125L12.15 3.88125L14.0062 2.86875L15.1312 3.99375L14.1188 5.85L14.2875 6.13125C14.5125 6.525 14.6812 6.91875 14.7937 7.3125L14.85 7.59375L16.875 8.2125V9.7875Z" fill="currentColor"/>
</svg>
