<svg width="20" height="20" viewBox="0 0 20 20" fill="none" xmlns="http://www.w3.org/2000/svg">
<path d="M15.0391 18.125C14.3099 18.125 13.7109 17.8776 13.2422 17.3828C12.7474 16.888 12.5 16.2891 12.5 15.5859C12.5 15.3516 12.513 15.2083 12.5391 15.1562L6.67969 11.8359C6.23698 12.2786 5.6901 12.5 5.03906 12.5C4.33594 12.5 3.73698 12.2526 3.24219 11.7578C2.7474 11.263 2.5 10.6641 2.5 9.96094C2.5 9.28385 2.7474 8.71094 3.24219 8.24219C3.73698 7.7474 4.33594 7.5 5.03906 7.5C5.6901 7.5 6.23698 7.72135 6.67969 8.16406L12.5391 4.88281C12.513 4.80469 12.5 4.6224 12.5 4.33594C12.5 3.65885 12.7474 3.08594 13.2422 2.61719C13.7109 2.1224 14.2969 1.875 15 1.875C15.6771 1.875 16.263 2.1224 16.7578 2.61719C17.2266 3.08594 17.474 3.65885 17.5 4.33594C17.5 5.03906 17.2526 5.63802 16.7578 6.13281C16.263 6.6276 15.6771 6.875 15 6.875C14.401 6.875 13.8411 6.65365 13.3203 6.21094L7.46094 9.53125C7.48698 9.58333 7.5 9.72656 7.5 9.96094C7.5 10.2214 7.48698 10.3906 7.46094 10.4688L13.3203 13.7891C13.8411 13.3464 14.4141 13.125 15.0391 13.125C15.8203 13.125 16.4193 13.3724 16.8359 13.8672C17.2526 14.362 17.4609 14.9479 17.4609 15.625C17.4609 16.3021 17.2526 16.888 16.8359 17.3828C16.4193 17.8776 15.8203 18.125 15.0391 18.125Z" fill="currentColor"/>
</svg>
