<svg width="30" height="30" viewBox="0 0 30 30" fill="none" xmlns="http://www.w3.org/2000/svg">
<path fill-rule="evenodd" clip-rule="evenodd" d="M6.09375 1.875C4.97487 1.875 3.90181 2.31947 3.11064 3.11064C2.31947 3.90181 1.875 4.97487 1.875 6.09375V23.9062C1.875 25.0251 2.31947 26.0982 3.11064 26.8894C3.90181 27.6805 4.97487 28.125 6.09375 28.125H23.9062C25.0251 28.125 26.0982 27.6805 26.8894 26.8894C27.6805 26.0982 28.125 25.0251 28.125 23.9062V6.09375C28.125 4.97487 27.6805 3.90181 26.8894 3.11064C26.0982 2.31947 25.0251 1.875 23.9062 1.875H6.09375ZM4.6875 6.09375C4.6875 5.72079 4.83566 5.3631 5.09938 5.09938C5.3631 4.83566 5.72079 4.6875 6.09375 4.6875H9.46875V25.3125H6.09375C5.72079 25.3125 5.3631 25.1643 5.09938 24.9006C4.83566 24.6369 4.6875 24.2792 4.6875 23.9062V6.09375ZM12.0937 25.3125H23.9062C24.2792 25.3125 24.6369 25.1643 24.9006 24.9006C25.1643 24.6369 25.3125 24.2792 25.3125 23.9062V6.09375C25.3125 5.72079 25.1643 5.3631 24.9006 5.09938C24.6369 4.83566 24.2792 4.6875 23.9062 4.6875H12.0937V25.3125Z" fill="currentColor"/>
<path d="M24 15L16.5 19.3301V10.6699L24 15Z" fill="currentColor"/>
</svg>
