<svg width="17" height="17" viewBox="0 0 17 17" fill="none" xmlns="http://www.w3.org/2000/svg">
<g clip-path="url(#clip0_142_10)">
<path d="M7.55556 0.944444C7.55556 0.944444 7.55556 0 8.5 0C9.44444 0 9.44444 0.944444 9.44444 0.944444V1.88889C9.44444 1.88889 9.44444 2.83333 8.5 2.83333C7.55556 2.83333 7.55556 1.88889 7.55556 1.88889V0.944444ZM16.0556 7.55556C16.0556 7.55556 17 7.55556 17 8.5C17 9.44444 16.0556 9.44444 16.0556 9.44444H15.1111C15.1111 9.44444 14.1667 9.44444 14.1667 8.5C14.1667 7.55556 15.1111 7.55556 15.1111 7.55556H16.0556ZM1.88889 7.55556C1.88889 7.55556 2.83333 7.55556 2.83333 8.5C2.83333 9.44444 1.88889 9.44444 1.88889 9.44444H0.944444C0.944444 9.44444 0 9.44444 0 8.5C0 7.55556 0.944444 7.55556 0.944444 7.55556H1.88889ZM4.30714 3.44392C4.30714 3.44392 4.97486 4.11164 4.30714 4.77936C3.63942 5.44708 2.97169 4.77936 2.97169 4.77936L2.3035 4.11211C2.3035 4.11211 1.63578 3.44439 2.3035 2.77619C2.97169 2.10847 3.63942 2.77619 3.63942 2.77619L4.30714 3.44392ZM14.2238 13.3606C14.2238 13.3606 14.8915 14.0283 14.2238 14.696C13.5561 15.3637 12.8884 14.696 12.8884 14.696L12.2206 14.0283C12.2206 14.0283 11.5529 13.3606 12.2206 12.6929C12.8884 12.0251 13.5561 12.6929 13.5561 12.6929L14.2238 13.3606ZM14.0288 4.77936C14.0288 4.77936 13.3611 5.44708 12.6933 4.77936C12.0256 4.11164 12.6933 3.44392 12.6933 3.44392L13.3611 2.77619C13.3611 2.77619 14.0288 2.10847 14.6965 2.77619C15.3642 3.44392 14.6965 4.11164 14.6965 4.11164L14.0288 4.77936ZM4.11211 14.696C4.11211 14.696 3.44439 15.3637 2.77667 14.696C2.10894 14.0283 2.77667 13.3606 2.77667 13.3606L3.44439 12.6929C3.44439 12.6929 4.11211 12.0251 4.77983 12.6929C5.44756 13.3606 4.77983 14.0283 4.77983 14.0283L4.11211 14.696ZM7.55556 15.1111C7.55556 15.1111 7.55556 14.1667 8.5 14.1667C9.44444 14.1667 9.44444 15.1111 9.44444 15.1111V16.0556C9.44444 16.0556 9.44444 17 8.5 17C7.55556 17 7.55556 16.0556 7.55556 16.0556V15.1111Z" fill="#FFAC33"/>
<path d="M8.5 13.2222C11.108 13.2222 13.2222 11.108 13.2222 8.5C13.2222 5.89199 11.108 3.77778 8.5 3.77778C5.89199 3.77778 3.77778 5.89199 3.77778 8.5C3.77778 11.108 5.89199 13.2222 8.5 13.2222Z" fill="#FFAC33"/>
</g>
<defs>
<clipPath id="clip0_142_10">
<rect width="17" height="17" fill="white"/>
</clipPath>
</defs>
</svg>
