<svg width="24" height="24" viewBox="0 0 24 24" fill="none" xmlns="http://www.w3.org/2000/svg">
<path d="M22.5 5.67599C22.2126 6.10653 21.8862 6.50972 21.525 6.88049C21.1619 7.25364 20.7675 7.5949 20.346 7.90049C20.3595 8.0887 20.3665 8.27731 20.367 8.46599C20.367 9.32699 20.2755 10.1775 20.091 11.019C19.9072 11.8575 19.6388 12.6752 19.29 13.4595C18.8069 14.5646 18.1685 15.595 17.394 16.5195C16.6518 17.4036 15.7823 18.1725 14.814 18.801C13.8423 19.428 12.7834 19.9082 11.6715 20.226C10.5113 20.5581 9.30983 20.7242 8.103 20.7195C6.93918 20.721 5.78107 20.5568 4.6635 20.232C3.54344 19.9059 2.4775 19.4167 1.5 18.78C2.62826 18.9164 3.77234 18.829 4.86676 18.5227C5.96118 18.2164 6.98445 17.6972 7.878 16.995C7.20953 16.9856 6.55263 16.8192 5.96036 16.5091C5.36809 16.1991 4.85704 15.754 4.4685 15.21C4.20349 14.8444 3.99749 14.4395 3.858 14.01C3.9945 14.031 4.1295 14.049 4.263 14.0625C4.77786 14.1129 5.2976 14.0676 5.796 13.929C5.30439 13.8321 4.83402 13.6482 4.407 13.386C3.99323 13.1317 3.62428 12.8109 3.315 12.4365C2.68008 11.6677 2.33503 10.7005 2.34 9.70349V9.65399C2.943 9.99449 3.5955 10.176 4.299 10.197C3.7124 9.79742 3.23079 9.2623 2.895 8.63699C2.73056 8.32859 2.60318 8.00182 2.5155 7.66349C2.33691 6.94752 2.34052 6.19821 2.526 5.48399C2.6205 5.11949 2.7675 4.77299 2.967 4.44449C3.513 5.12099 4.122 5.72849 4.791 6.26399C6.12062 7.33033 7.65699 8.10924 9.303 8.55149C10.1338 8.77413 10.9863 8.9064 11.8455 8.94599C11.804 8.78596 11.775 8.62298 11.7585 8.45849C11.7416 8.29353 11.7331 8.12782 11.733 7.96199C11.733 7.36649 11.8455 6.80699 12.072 6.28499C12.5111 5.25354 13.3325 4.43214 14.364 3.99299C14.8933 3.76643 15.4637 3.65154 16.0395 3.65549C16.6301 3.65262 17.2148 3.77232 17.7568 4.00701C18.2987 4.24171 18.7861 4.5863 19.188 5.01899C20.1503 4.82901 21.0728 4.47484 21.915 3.97199C21.6028 4.97155 20.9302 5.81942 20.028 6.35099C20.8811 6.25184 21.7145 6.0248 22.5 5.67749V5.67599Z" fill="currentColor"/>
</svg>
